<svg width="469" height="321" viewBox="0 0 469 321" fill="none" xmlns="http://www.w3.org/2000/svg">
<path d="M113.196 119.97V14.9696H124.446V119.97H113.196ZM45.8457 119.97V14.9696H57.0957V119.97H45.8457ZM51.6957 71.5196V60.5696H119.946V71.5196H51.6957ZM178.835 121.77C171.735 121.77 165.435 120.12 159.935 116.82C154.435 113.52 150.135 108.92 147.035 103.02C143.935 97.1196 142.385 90.2696 142.385 82.4696C142.385 74.6696 143.885 67.8196 146.885 61.9196C149.985 56.0196 154.235 51.4196 159.635 48.1196C165.135 44.8196 171.435 43.1696 178.535 43.1696C185.535 43.1696 191.635 44.8696 196.835 48.2696C202.135 51.5696 206.285 56.2696 209.285 62.3696C212.285 68.3696 213.785 75.3696 213.785 83.3696V84.7196L211.535 86.8196H148.985V75.8696H207.185L202.235 77.9696C201.835 72.9696 200.535 68.7196 198.335 65.2196C196.135 61.6196 193.335 58.8696 189.935 56.9696C186.535 55.0696 182.735 54.1196 178.535 54.1196C173.935 54.1196 169.735 55.2696 165.935 57.5696C162.135 59.7696 159.135 62.9196 156.935 67.0196C154.735 71.1196 153.635 75.8696 153.635 81.2696V83.2196C153.635 88.6196 154.685 93.4196 156.785 97.6196C158.985 101.72 161.985 104.97 165.785 107.37C169.585 109.67 173.935 110.82 178.835 110.82C183.735 110.82 187.935 109.67 191.435 107.37C194.935 105.07 197.685 101.92 199.685 97.9196H201.335L210.785 102.12C207.985 108.12 203.785 112.92 198.185 116.52C192.685 120.02 186.235 121.77 178.835 121.77ZM236.455 149.97V148.77L248.605 119.97L252.505 111.72L279.655 44.9696H291.355V46.1696L247.855 149.97H236.455ZM248.755 119.97L218.305 46.1696V44.9696H230.005L255.655 108.57V119.97H248.755ZM312.48 149.97V148.77L324.63 119.97L328.53 111.72L355.68 44.9696H367.38V46.1696L323.88 149.97H312.48ZM324.78 119.97L294.33 46.1696V44.9696H306.03L331.68 108.57V119.97H324.78Z" fill="white"/>
<path d="M390.057 121.17C387.557 121.17 385.457 120.37 383.757 118.77C382.157 117.07 381.357 114.97 381.357 112.47C381.357 109.97 382.157 107.87 383.757 106.17C385.457 104.47 387.557 103.62 390.057 103.62C392.557 103.62 394.607 104.47 396.207 106.17C397.907 107.87 398.757 109.97 398.757 112.47C398.757 114.97 397.907 117.07 396.207 118.77C394.607 120.37 392.557 121.17 390.057 121.17Z" fill="#EC1D22"/>
<path d="M438.276 121.17C435.776 121.17 433.676 120.37 431.976 118.77C430.376 117.07 429.576 114.97 429.576 112.47C429.576 109.97 430.376 107.87 431.976 106.17C433.676 104.47 435.776 103.62 438.276 103.62C440.776 103.62 442.826 104.47 444.426 106.17C446.126 107.87 446.976 109.97 446.976 112.47C446.976 114.97 446.126 117.07 444.426 118.77C442.826 120.37 440.776 121.17 438.276 121.17Z" fill="#F29A20"/>
<path d="M68.1125 190.538L60.4965 166.738H63.1145L70.2205 189.824L70.5265 190.538H68.1125ZM68.1125 190.538L68.2485 189.824L74.6745 166.738H77.3605V167.01L70.5265 190.538H68.1125ZM53.0845 190.538L46.2505 167.01V166.738H48.9365L55.3625 189.824L55.4985 190.538H53.0845ZM53.0845 190.538L53.3905 189.824L60.4965 166.738H63.1145L55.4985 190.538H53.0845ZM87.3251 190.946C85.7158 190.946 84.2878 190.572 83.0411 189.824C81.7945 189.076 80.8198 188.034 80.1171 186.696C79.4145 185.359 79.0631 183.806 79.0631 182.038C79.0631 180.27 79.4031 178.718 80.0831 177.38C80.7858 176.043 81.7491 175 82.9731 174.252C84.2198 173.504 85.6478 173.13 87.2571 173.13C88.8438 173.13 90.2265 173.516 91.4051 174.286C92.6065 175.034 93.5471 176.1 94.2271 177.482C94.9071 178.842 95.2471 180.429 95.2471 182.242V182.548L94.7371 183.024H80.5591V180.542H93.7511L92.6291 181.018C92.5385 179.885 92.2438 178.922 91.7451 178.128C91.2465 177.312 90.6118 176.689 89.8411 176.258C89.0705 175.828 88.2091 175.612 87.2571 175.612C86.2145 175.612 85.2625 175.873 84.4011 176.394C83.5398 176.893 82.8598 177.607 82.3611 178.536C81.8625 179.466 81.6131 180.542 81.6131 181.766V182.208C81.6131 183.432 81.8511 184.52 82.3271 185.472C82.8258 186.402 83.5058 187.138 84.3671 187.682C85.2285 188.204 86.2145 188.464 87.3251 188.464C88.4358 188.464 89.3878 188.204 90.1811 187.682C90.9745 187.161 91.5978 186.447 92.0511 185.54H92.4251L94.5671 186.492C93.9325 187.852 92.9805 188.94 91.7111 189.756C90.4645 190.55 89.0025 190.946 87.3251 190.946ZM111.818 190.946C110.662 190.946 109.62 190.72 108.69 190.266C107.784 189.813 107.07 189.19 106.548 188.396C106.027 187.603 105.766 186.685 105.766 185.642C105.766 184.169 106.288 182.979 107.33 182.072C108.396 181.143 109.858 180.61 111.716 180.474L118.244 179.998V182.378L112.294 182.82C110.98 182.911 109.994 183.194 109.336 183.67C108.702 184.146 108.384 184.804 108.384 185.642C108.384 186.458 108.713 187.138 109.37 187.682C110.05 188.204 110.923 188.464 111.988 188.464C113.054 188.464 114.017 188.226 114.878 187.75C115.762 187.252 116.454 186.594 116.952 185.778C117.474 184.94 117.734 184.01 117.734 182.99V180.236C117.734 178.876 117.315 177.766 116.476 176.904C115.66 176.02 114.55 175.578 113.144 175.578C112.079 175.578 111.161 175.839 110.39 176.36C109.62 176.859 109.076 177.596 108.758 178.57H108.384L106.14 177.754C106.684 176.236 107.568 175.08 108.792 174.286C110.016 173.493 111.478 173.096 113.178 173.096C115.468 173.096 117.224 173.788 118.448 175.17C119.672 176.53 120.284 178.468 120.284 180.984V190.538H117.802V185.608L118.686 186.254C118.414 187.161 117.938 187.977 117.258 188.702C116.578 189.405 115.774 189.96 114.844 190.368C113.915 190.754 112.906 190.946 111.818 190.946ZM124.874 190.538V173.538H127.356V178.468L126.608 177.822C126.993 176.508 127.73 175.465 128.818 174.694C129.929 173.924 131.175 173.538 132.558 173.538H134.326V176.02H132.15C131.221 176.02 130.393 176.247 129.668 176.7C128.965 177.154 128.41 177.777 128.002 178.57C127.617 179.364 127.424 180.293 127.424 181.358V190.538H124.874ZM143.638 190.946C142.028 190.946 140.6 190.572 139.354 189.824C138.107 189.076 137.132 188.034 136.43 186.696C135.727 185.359 135.376 183.806 135.376 182.038C135.376 180.27 135.716 178.718 136.396 177.38C137.098 176.043 138.062 175 139.286 174.252C140.532 173.504 141.96 173.13 143.57 173.13C145.156 173.13 146.539 173.516 147.718 174.286C148.919 175.034 149.86 176.1 150.54 177.482C151.22 178.842 151.56 180.429 151.56 182.242V182.548L151.05 183.024H136.872V180.542H150.064L148.942 181.018C148.851 179.885 148.556 178.922 148.058 178.128C147.559 177.312 146.924 176.689 146.154 176.258C145.383 175.828 144.522 175.612 143.57 175.612C142.527 175.612 141.575 175.873 140.714 176.394C139.852 176.893 139.172 177.607 138.674 178.536C138.175 179.466 137.926 180.542 137.926 181.766V182.208C137.926 183.432 138.164 184.52 138.64 185.472C139.138 186.402 139.818 187.138 140.68 187.682C141.541 188.204 142.527 188.464 143.638 188.464C144.748 188.464 145.7 188.204 146.494 187.682C147.287 187.161 147.91 186.447 148.364 185.54H148.738L150.88 186.492C150.245 187.852 149.293 188.94 148.024 189.756C146.777 190.55 145.315 190.946 143.638 190.946ZM176.291 230.538L170.817 213.81V213.538H173.367L177.923 227.818L178.671 230.538H176.291ZM176.291 230.538L177.243 227.818L182.105 213.538H184.417V213.81L178.671 230.538H176.291ZM187.851 230.538L182.105 213.81V213.538H184.417L189.279 227.818L190.231 230.538H187.851ZM187.851 230.538L188.599 227.818L193.121 213.538H195.705V213.81L190.231 230.538H187.851ZM198.585 230.538V213.538H201.135V230.538H198.585ZM199.877 210.206C199.356 210.206 198.914 210.025 198.551 209.662C198.188 209.3 198.007 208.858 198.007 208.336C198.007 207.815 198.188 207.373 198.551 207.01C198.914 206.648 199.356 206.466 199.877 206.466C200.398 206.466 200.84 206.648 201.203 207.01C201.566 207.373 201.747 207.815 201.747 208.336C201.747 208.858 201.566 209.3 201.203 209.662C200.84 210.025 200.398 210.206 199.877 210.206ZM210.916 230.538C209.511 230.538 208.355 230.085 207.448 229.178C206.542 228.272 206.088 227.048 206.088 225.506V208.914H208.638V225.336C208.638 226.334 208.842 227.036 209.25 227.444C209.681 227.852 210.384 228.056 211.358 228.056H213.466L213.636 228.43V230.538H210.916ZM203.164 216.02V213.538H213.636V216.02H203.164ZM217.714 230.538V206.058L220.162 205.752L220.264 206.024V218.468L219.448 217.822C219.743 216.87 220.23 216.043 220.91 215.34C221.59 214.638 222.383 214.094 223.29 213.708C224.219 213.323 225.205 213.13 226.248 213.13C227.472 213.13 228.56 213.391 229.512 213.912C230.464 214.434 231.201 215.204 231.722 216.224C232.266 217.244 232.538 218.514 232.538 220.032V230.538H229.988V220.61C229.988 219.318 229.795 218.321 229.41 217.618C229.025 216.893 228.503 216.383 227.846 216.088C227.211 215.794 226.486 215.646 225.67 215.646C224.741 215.646 223.857 215.873 223.018 216.326C222.202 216.78 221.533 217.437 221.012 218.298C220.513 219.137 220.264 220.157 220.264 221.358V230.538H217.714ZM57.8445 270.946C55.7365 270.946 53.8551 270.436 52.2005 269.416C50.5685 268.396 49.2765 266.968 48.3245 265.132C47.3951 263.274 46.9305 261.109 46.9305 258.638C46.9305 256.145 47.3951 253.98 48.3245 252.144C49.2765 250.308 50.5685 248.88 52.2005 247.86C53.8551 246.84 55.7365 246.33 57.8445 246.33C60.1338 246.33 62.1738 246.942 63.9645 248.166C65.7551 249.368 67.0925 251.09 67.9765 253.334L65.7665 253.98L65.3925 253.912C64.6898 252.235 63.6925 250.966 62.4005 250.104C61.1085 249.243 59.6238 248.812 57.9465 248.812C56.3371 248.812 54.8978 249.209 53.6285 250.002C52.3591 250.796 51.3618 251.929 50.6365 253.402C49.9111 254.876 49.5485 256.621 49.5485 258.638C49.5485 260.656 49.9111 262.401 50.6365 263.874C51.3618 265.348 52.3591 266.481 53.6285 267.274C54.8978 268.068 56.3371 268.464 57.9465 268.464C59.6238 268.464 61.1085 268.034 62.4005 267.172C63.6925 266.288 64.6898 265.019 65.3925 263.364L65.7665 263.296L67.9765 263.942C67.0925 266.186 65.7551 267.92 63.9645 269.144C62.1738 270.346 60.1338 270.946 57.8445 270.946ZM71.7159 270.538V253.538H74.1979V258.468L73.4499 257.822C73.8353 256.508 74.5719 255.465 75.6599 254.694C76.7706 253.924 78.0173 253.538 79.3999 253.538H81.1679V256.02H78.9919C78.0626 256.02 77.2353 256.247 76.5099 256.7C75.8073 257.154 75.2519 257.777 74.8439 258.57C74.4586 259.364 74.2659 260.293 74.2659 261.358V270.538H71.7159ZM90.4794 270.946C88.8701 270.946 87.4421 270.572 86.1954 269.824C84.9488 269.076 83.9741 268.034 83.2714 266.696C82.5688 265.359 82.2174 263.806 82.2174 262.038C82.2174 260.27 82.5574 258.718 83.2374 257.38C83.9401 256.043 84.9034 255 86.1274 254.252C87.3741 253.504 88.8021 253.13 90.4114 253.13C91.9981 253.13 93.3808 253.516 94.5594 254.286C95.7608 255.034 96.7014 256.1 97.3814 257.482C98.0614 258.842 98.4014 260.429 98.4014 262.242V262.548L97.8914 263.024H83.7134V260.542H96.9054L95.7834 261.018C95.6928 259.885 95.3981 258.922 94.8994 258.128C94.4008 257.312 93.7661 256.689 92.9954 256.258C92.2248 255.828 91.3634 255.612 90.4114 255.612C89.3688 255.612 88.4168 255.873 87.5554 256.394C86.6941 256.893 86.0141 257.607 85.5154 258.536C85.0168 259.466 84.7674 260.542 84.7674 261.766V262.208C84.7674 263.432 85.0054 264.52 85.4814 265.472C85.9801 266.402 86.6601 267.138 87.5214 267.682C88.3828 268.204 89.3688 268.464 90.4794 268.464C91.5901 268.464 92.5421 268.204 93.3354 267.682C94.1288 267.161 94.7521 266.447 95.2054 265.54H95.5794L97.7214 266.492C97.0868 267.852 96.1348 268.94 94.8654 269.756C93.6188 270.55 92.1568 270.946 90.4794 270.946ZM107.502 270.946C106.346 270.946 105.303 270.72 104.374 270.266C103.467 269.813 102.753 269.19 102.232 268.396C101.711 267.603 101.45 266.685 101.45 265.642C101.45 264.169 101.971 262.979 103.014 262.072C104.079 261.143 105.541 260.61 107.4 260.474L113.928 259.998V262.378L107.978 262.82C106.663 262.911 105.677 263.194 105.02 263.67C104.385 264.146 104.068 264.804 104.068 265.642C104.068 266.458 104.397 267.138 105.054 267.682C105.734 268.204 106.607 268.464 107.672 268.464C108.737 268.464 109.701 268.226 110.562 267.75C111.446 267.252 112.137 266.594 112.636 265.778C113.157 264.94 113.418 264.01 113.418 262.99V260.236C113.418 258.876 112.999 257.766 112.16 256.904C111.344 256.02 110.233 255.578 108.828 255.578C107.763 255.578 106.845 255.839 106.074 256.36C105.303 256.859 104.759 257.596 104.442 258.57H104.068L101.824 257.754C102.368 256.236 103.252 255.08 104.476 254.286C105.7 253.493 107.162 253.096 108.862 253.096C111.151 253.096 112.908 253.788 114.132 255.17C115.356 256.53 115.968 258.468 115.968 260.984V270.538H113.486V265.608L114.37 266.254C114.098 267.161 113.622 267.977 112.942 268.702C112.262 269.405 111.457 269.96 110.528 270.368C109.599 270.754 108.59 270.946 107.502 270.946ZM125.584 270.538C124.179 270.538 123.023 270.085 122.116 269.178C121.21 268.272 120.756 267.048 120.756 265.506V248.914H123.306V265.336C123.306 266.334 123.51 267.036 123.918 267.444C124.349 267.852 125.052 268.056 126.026 268.056H128.134L128.304 268.43V270.538H125.584ZM117.832 256.02V253.538H128.304V256.02H117.832ZM132.212 270.538V253.538H134.762V270.538H132.212ZM133.504 250.206C132.983 250.206 132.541 250.025 132.178 249.662C131.815 249.3 131.634 248.858 131.634 248.336C131.634 247.815 131.815 247.373 132.178 247.01C132.541 246.648 132.983 246.466 133.504 246.466C134.025 246.466 134.467 246.648 134.83 247.01C135.193 247.373 135.374 247.815 135.374 248.336C135.374 248.858 135.193 249.3 134.83 249.662C134.467 250.025 134.025 250.206 133.504 250.206ZM144.599 270.538V267.954L150.447 253.538H153.099V253.81L146.197 270.538H144.599ZM143.715 270.538L136.813 253.81V253.538H139.465L145.313 267.954V270.538H143.715ZM162.397 270.946C160.788 270.946 159.36 270.572 158.113 269.824C156.867 269.076 155.892 268.034 155.189 266.696C154.487 265.359 154.135 263.806 154.135 262.038C154.135 260.27 154.475 258.718 155.155 257.38C155.858 256.043 156.821 255 158.045 254.252C159.292 253.504 160.72 253.13 162.329 253.13C163.916 253.13 165.299 253.516 166.477 254.286C167.679 255.034 168.619 256.1 169.299 257.482C169.979 258.842 170.319 260.429 170.319 262.242V262.548L169.809 263.024H155.631V260.542H168.823L167.701 261.018C167.611 259.885 167.316 258.922 166.817 258.128C166.319 257.312 165.684 256.689 164.913 256.258C164.143 255.828 163.281 255.612 162.329 255.612C161.287 255.612 160.335 255.873 159.473 256.394C158.612 256.893 157.932 257.607 157.433 258.536C156.935 259.466 156.685 260.542 156.685 261.766V262.208C156.685 263.432 156.923 264.52 157.399 265.472C157.898 266.402 158.578 267.138 159.439 267.682C160.301 268.204 161.287 268.464 162.397 268.464C163.508 268.464 164.46 268.204 165.253 267.682C166.047 267.161 166.67 266.447 167.123 265.54H167.497L169.639 266.492C169.005 267.852 168.053 268.94 166.783 269.756C165.537 270.55 164.075 270.946 162.397 270.946ZM47.6105 310.538V293.538H50.1605V310.538H47.6105ZM48.9025 290.206C48.3811 290.206 47.9391 290.025 47.5765 289.662C47.2138 289.3 47.0325 288.858 47.0325 288.336C47.0325 287.815 47.2138 287.373 47.5765 287.01C47.9391 286.648 48.3811 286.466 48.9025 286.466C49.4238 286.466 49.8658 286.648 50.2285 287.01C50.5911 287.373 50.7725 287.815 50.7725 288.336C50.7725 288.858 50.5911 289.3 50.2285 289.662C49.8658 290.025 49.4238 290.206 48.9025 290.206ZM61.9192 310.946C60.4232 310.946 59.0632 310.561 57.8392 309.79C56.6378 309.02 55.6745 307.966 54.9492 306.628C54.2465 305.291 53.8952 303.761 53.8952 302.038C53.8952 300.316 54.2465 298.786 54.9492 297.448C55.6745 296.111 56.6378 295.057 57.8392 294.286C59.0632 293.516 60.4232 293.13 61.9192 293.13C63.0752 293.13 64.1405 293.368 65.1152 293.844C66.0898 294.298 66.9285 294.944 67.6312 295.782C68.3338 296.598 68.8552 297.573 69.1952 298.706V305.37C68.8552 306.481 68.3338 307.456 67.6312 308.294C66.9285 309.133 66.0898 309.79 65.1152 310.266C64.1405 310.72 63.0752 310.946 61.9192 310.946ZM62.0212 308.464C63.1545 308.464 64.1518 308.192 65.0132 307.648C65.8972 307.104 66.5885 306.356 67.0872 305.404C67.6085 304.43 67.8692 303.308 67.8692 302.038C67.8692 300.769 67.6085 299.658 67.0872 298.706C66.5885 297.732 65.8972 296.972 65.0132 296.428C64.1518 295.884 63.1545 295.612 62.0212 295.612C60.9558 295.612 59.9925 295.884 59.1312 296.428C58.2925 296.972 57.6352 297.732 57.1592 298.706C56.6832 299.658 56.4452 300.769 56.4452 302.038C56.4452 303.308 56.6832 304.43 57.1592 305.404C57.6352 306.356 58.2925 307.104 59.1312 307.648C59.9925 308.192 60.9558 308.464 62.0212 308.464ZM67.9372 310.538V304.18L68.3452 302.038L67.8692 299.896V286.058L70.3172 285.752L70.4192 286.024V310.538H67.9372ZM82.5771 310.946C80.9677 310.946 79.5397 310.572 78.2931 309.824C77.0464 309.076 76.0717 308.034 75.3691 306.696C74.6664 305.359 74.3151 303.806 74.3151 302.038C74.3151 300.27 74.6551 298.718 75.3351 297.38C76.0377 296.043 77.0011 295 78.2251 294.252C79.4717 293.504 80.8997 293.13 82.5091 293.13C84.0957 293.13 85.4784 293.516 86.6571 294.286C87.8584 295.034 88.7991 296.1 89.4791 297.482C90.1591 298.842 90.4991 300.429 90.4991 302.242V302.548L89.9891 303.024H75.8111V300.542H89.0031L87.8811 301.018C87.7904 299.885 87.4957 298.922 86.9971 298.128C86.4984 297.312 85.8637 296.689 85.0931 296.258C84.3224 295.828 83.4611 295.612 82.5091 295.612C81.4664 295.612 80.5144 295.873 79.6531 296.394C78.7917 296.893 78.1117 297.607 77.6131 298.536C77.1144 299.466 76.8651 300.542 76.8651 301.766V302.208C76.8651 303.432 77.1031 304.52 77.5791 305.472C78.0777 306.402 78.7577 307.138 79.6191 307.682C80.4804 308.204 81.4664 308.464 82.5771 308.464C83.6877 308.464 84.6397 308.204 85.4331 307.682C86.2264 307.161 86.8497 306.447 87.3031 305.54H87.6771L89.8191 306.492C89.1844 307.852 88.2324 308.94 86.9631 309.756C85.7164 310.55 84.2544 310.946 82.5771 310.946ZM99.5997 310.946C98.4437 310.946 97.401 310.72 96.4717 310.266C95.565 309.813 94.851 309.19 94.3297 308.396C93.8083 307.603 93.5477 306.685 93.5477 305.642C93.5477 304.169 94.069 302.979 95.1117 302.072C96.177 301.143 97.639 300.61 99.4977 300.474L106.026 299.998V302.378L100.076 302.82C98.761 302.911 97.775 303.194 97.1177 303.67C96.483 304.146 96.1657 304.804 96.1657 305.642C96.1657 306.458 96.4943 307.138 97.1517 307.682C97.8317 308.204 98.7043 308.464 99.7697 308.464C100.835 308.464 101.798 308.226 102.66 307.75C103.544 307.252 104.235 306.594 104.734 305.778C105.255 304.94 105.516 304.01 105.516 302.99V300.236C105.516 298.876 105.096 297.766 104.258 296.904C103.442 296.02 102.331 295.578 100.926 295.578C99.8603 295.578 98.9423 295.839 98.1717 296.36C97.401 296.859 96.857 297.596 96.5397 298.57H96.1657L93.9217 297.754C94.4657 296.236 95.3497 295.08 96.5737 294.286C97.7977 293.493 99.2597 293.096 100.96 293.096C103.249 293.096 105.006 293.788 106.23 295.17C107.454 296.53 108.066 298.468 108.066 300.984V310.538H105.584V305.608L106.468 306.254C106.196 307.161 105.72 307.977 105.04 308.702C104.36 309.405 103.555 309.96 102.626 310.368C101.696 310.754 100.688 310.946 99.5997 310.946ZM118.095 310.946C116.35 310.946 114.877 310.527 113.675 309.688C112.474 308.827 111.681 307.626 111.295 306.084L113.641 305.506L114.015 305.574C114.265 306.481 114.786 307.195 115.579 307.716C116.373 308.215 117.302 308.464 118.367 308.464C119.433 308.464 120.339 308.226 121.087 307.75C121.858 307.252 122.243 306.606 122.243 305.812C122.243 305.155 122.017 304.634 121.563 304.248C121.133 303.84 120.475 303.534 119.591 303.33L116.463 302.616C114.877 302.254 113.709 301.676 112.961 300.882C112.236 300.066 111.873 299.103 111.873 297.992C111.873 297.04 112.134 296.202 112.655 295.476C113.177 294.751 113.891 294.184 114.797 293.776C115.727 293.346 116.781 293.13 117.959 293.13C119.682 293.13 121.133 293.561 122.311 294.422C123.49 295.284 124.272 296.496 124.657 298.06L122.277 298.57L121.903 298.502C121.677 297.573 121.178 296.859 120.407 296.36C119.659 295.862 118.821 295.612 117.891 295.612C116.917 295.612 116.101 295.828 115.443 296.258C114.809 296.689 114.491 297.233 114.491 297.89C114.491 298.457 114.695 298.933 115.103 299.318C115.534 299.681 116.214 299.964 117.143 300.168L120.305 300.882C121.869 301.245 123.014 301.823 123.739 302.616C124.487 303.41 124.861 304.418 124.861 305.642C124.861 306.73 124.567 307.671 123.977 308.464C123.388 309.258 122.583 309.87 121.563 310.3C120.566 310.731 119.41 310.946 118.095 310.946Z" fill="white"/>
<path d="M57.8445 230.946C55.7365 230.946 53.8551 230.436 52.2005 229.416C50.5685 228.396 49.2765 226.968 48.3245 225.132C47.3951 223.274 46.9305 221.109 46.9305 218.638C46.9305 216.145 47.3951 213.98 48.3245 212.144C49.2765 210.308 50.5685 208.88 52.2005 207.86C53.8551 206.84 55.7365 206.33 57.8445 206.33C60.1338 206.33 62.1738 206.942 63.9645 208.166C65.7551 209.368 67.0925 211.09 67.9765 213.334L65.7665 213.98L65.3925 213.912C64.6898 212.235 63.6925 210.966 62.4005 210.104C61.1085 209.243 59.6238 208.812 57.9465 208.812C56.3371 208.812 54.8978 209.209 53.6285 210.002C52.3591 210.796 51.3618 211.929 50.6365 213.402C49.9111 214.876 49.5485 216.621 49.5485 218.638C49.5485 220.656 49.9111 222.401 50.6365 223.874C51.3618 225.348 52.3591 226.481 53.6285 227.274C54.8978 228.068 56.3371 228.464 57.9465 228.464C59.6238 228.464 61.1085 228.034 62.4005 227.172C63.6925 226.288 64.6898 225.019 65.3925 223.364L65.7665 223.296L67.9765 223.942C67.0925 226.186 65.7551 227.92 63.9645 229.144C62.1738 230.346 60.1338 230.946 57.8445 230.946ZM79.0599 230.946C77.4279 230.946 75.9773 230.572 74.7079 229.824C73.4613 229.076 72.4753 228.034 71.7499 226.696C71.0473 225.359 70.6959 223.806 70.6959 222.038C70.6959 220.27 71.0473 218.718 71.7499 217.38C72.4753 216.043 73.4613 215 74.7079 214.252C75.9773 213.504 77.4279 213.13 79.0599 213.13C80.7146 213.13 82.1653 213.504 83.4119 214.252C84.6586 215 85.6333 216.043 86.3359 217.38C87.0613 218.718 87.4239 220.27 87.4239 222.038C87.4239 223.806 87.0613 225.359 86.3359 226.696C85.6333 228.034 84.6586 229.076 83.4119 229.824C82.1653 230.572 80.7146 230.946 79.0599 230.946ZM79.0599 228.464C80.1933 228.464 81.1906 228.204 82.0519 227.682C82.9359 227.138 83.6273 226.39 84.1259 225.438C84.6246 224.464 84.8739 223.33 84.8739 222.038C84.8739 220.724 84.6246 219.59 84.1259 218.638C83.6273 217.686 82.9359 216.95 82.0519 216.428C81.1906 215.884 80.1933 215.612 79.0599 215.612C77.9266 215.612 76.9179 215.884 76.0339 216.428C75.1726 216.95 74.4926 217.686 73.9939 218.638C73.4953 219.59 73.2459 220.724 73.2459 222.038C73.2459 223.33 73.4953 224.464 73.9939 225.438C74.4926 226.39 75.1726 227.138 76.0339 227.682C76.9179 228.204 77.9266 228.464 79.0599 228.464ZM91.173 230.538V213.538H93.655V218.468L92.907 217.822C93.2016 216.87 93.689 216.043 94.369 215.34C95.049 214.638 95.8423 214.094 96.749 213.708C97.6556 213.323 98.585 213.13 99.537 213.13C101.033 213.13 102.314 213.561 103.379 214.422C104.467 215.261 105.17 216.485 105.487 218.094H104.331C104.603 217.097 105.079 216.236 105.759 215.51C106.439 214.762 107.266 214.184 108.241 213.776C109.238 213.346 110.315 213.13 111.471 213.13C112.65 213.13 113.692 213.391 114.599 213.912C115.528 214.434 116.254 215.204 116.775 216.224C117.319 217.244 117.591 218.514 117.591 220.032V230.538H115.041V220.61C115.041 219.318 114.848 218.321 114.463 217.618C114.078 216.893 113.568 216.383 112.933 216.088C112.321 215.794 111.641 215.646 110.893 215.646C110.077 215.646 109.261 215.862 108.445 216.292C107.652 216.723 106.983 217.369 106.439 218.23C105.918 219.069 105.657 220.112 105.657 221.358V230.538H103.107V220.61C103.107 219.318 102.914 218.321 102.529 217.618C102.144 216.893 101.634 216.383 100.999 216.088C100.387 215.794 99.707 215.646 98.959 215.646C98.143 215.646 97.327 215.873 96.511 216.326C95.7176 216.757 95.049 217.403 94.505 218.264C93.9836 219.103 93.723 220.134 93.723 221.358V230.538H91.173ZM122.185 230.538V213.538H124.735V230.538H122.185ZM123.477 210.206C122.955 210.206 122.513 210.025 122.151 209.662C121.788 209.3 121.607 208.858 121.607 208.336C121.607 207.815 121.788 207.373 122.151 207.01C122.513 206.648 122.955 206.466 123.477 206.466C123.998 206.466 124.44 206.648 124.803 207.01C125.165 207.373 125.347 207.815 125.347 208.336C125.347 208.858 125.165 209.3 124.803 209.662C124.44 210.025 123.998 210.206 123.477 210.206ZM129.489 230.538V213.538H131.971V218.468L131.223 217.822C131.518 216.87 132.005 216.043 132.685 215.34C133.365 214.638 134.159 214.094 135.065 213.708C135.995 213.323 136.981 213.13 138.023 213.13C139.247 213.13 140.335 213.391 141.287 213.912C142.239 214.434 142.976 215.204 143.497 216.224C144.041 217.244 144.313 218.514 144.313 220.032V230.538H141.763V220.61C141.763 219.318 141.571 218.321 141.185 217.618C140.8 216.893 140.279 216.383 139.621 216.088C138.987 215.794 138.261 215.646 137.445 215.646C136.516 215.646 135.632 215.873 134.793 216.326C133.977 216.78 133.309 217.437 132.787 218.298C132.289 219.137 132.039 220.157 132.039 221.358V230.538H129.489ZM154.157 237.338C151.959 237.338 150.247 236.885 149.023 235.978C147.822 235.072 147.221 233.848 147.221 232.306C147.221 231.354 147.448 230.504 147.901 229.756C148.377 229.008 149.069 228.43 149.975 228.022L151.301 229.416C150.803 229.643 150.406 229.983 150.111 230.436C149.839 230.867 149.703 231.343 149.703 231.864C149.703 232.771 150.077 233.508 150.825 234.074C151.596 234.664 152.639 234.958 153.953 234.958H156.299C157.659 234.958 158.736 234.72 159.529 234.244C160.323 233.768 160.719 233.077 160.719 232.17C160.719 231.513 160.459 230.992 159.937 230.606C159.439 230.221 158.691 230.028 157.693 230.028H152.967C152.083 230.028 151.279 229.87 150.553 229.552C149.851 229.235 149.284 228.793 148.853 228.226C148.445 227.66 148.241 226.991 148.241 226.22C148.241 225.495 148.445 224.826 148.853 224.214C149.284 223.58 149.975 223.092 150.927 222.752L152.321 224.078C151.709 224.214 151.279 224.452 151.029 224.792C150.78 225.132 150.655 225.518 150.655 225.948C150.655 226.515 150.871 226.957 151.301 227.274C151.755 227.569 152.355 227.716 153.103 227.716H157.693C159.371 227.716 160.697 228.136 161.671 228.974C162.669 229.79 163.167 230.867 163.167 232.204C163.167 233.791 162.544 235.038 161.297 235.944C160.051 236.874 158.385 237.338 156.299 237.338H154.157ZM155.313 225.234C153.999 225.234 152.831 224.985 151.811 224.486C150.814 223.965 150.032 223.251 149.465 222.344C148.899 221.415 148.615 220.361 148.615 219.182C148.615 217.981 148.899 216.927 149.465 216.02C150.032 215.114 150.814 214.411 151.811 213.912C152.831 213.391 153.999 213.13 155.313 213.13C156.651 213.13 157.818 213.391 158.815 213.912C159.813 214.411 160.595 215.114 161.161 216.02C161.728 216.927 162.011 217.981 162.011 219.182C162.011 220.361 161.728 221.415 161.161 222.344C160.595 223.251 159.813 223.965 158.815 224.486C157.818 224.985 156.651 225.234 155.313 225.234ZM155.313 222.922C156.583 222.922 157.603 222.582 158.373 221.902C159.167 221.2 159.563 220.293 159.563 219.182C159.563 218.072 159.167 217.176 158.373 216.496C157.603 215.794 156.583 215.442 155.313 215.442C154.044 215.442 153.013 215.794 152.219 216.496C151.449 217.176 151.063 218.072 151.063 219.182C151.063 220.293 151.449 221.2 152.219 221.902C153.013 222.582 154.044 222.922 155.313 222.922ZM159.869 215.578L158.169 214.388C158.169 213.527 158.351 212.768 158.713 212.11C159.076 211.43 159.552 210.898 160.141 210.512C160.753 210.127 161.433 209.934 162.181 209.934C162.34 209.934 162.521 209.946 162.725 209.968C162.929 209.968 163.088 209.991 163.201 210.036V212.416L163.031 212.79C162.805 212.722 162.544 212.688 162.249 212.688C161.456 212.688 160.855 212.96 160.447 213.504C160.062 214.026 159.869 214.717 159.869 215.578Z" fill="#EC1D22"/>
</svg>
