<?xml version="1.0" encoding="UTF-8"?>
<svg id="Layer_1" data-name="Layer 1" xmlns="http://www.w3.org/2000/svg" viewBox="0 0 500 500">
  <defs>
    <style>
      .cls-1 {
        fill: #fff;
      }
    </style>
  </defs>
  <rect width="500" height="500" rx="55.04" ry="55.04"/>
  <g>
    <polygon class="cls-1" points="55.24 70.94 188.97 265.73 240.72 243.08 226.47 191.14 262.76 177.53 55.24 70.94"/>
    <polygon class="cls-1" points="281.78 170.73 326.5 121.23 361.62 127.14 444.76 112.33 281.78 170.73"/>
    <polygon class="cls-1" points="238.38 196.81 259.41 259.18 304.24 269.38 329.66 174.7 357.2 152.02 238.38 196.81"/>
    <polygon class="cls-1" points="209.65 266.66 208.03 342.46 298.9 277.33 250.92 266.66 244.31 251.49 209.65 266.66"/>
    <polygon class="cls-1" points="190.43 274.7 152.36 429.06 194.89 392.7 199.01 271.27 190.43 274.7"/>
  </g>
</svg>