<?xml version="1.0" encoding="UTF-8"?>
<svg id="Layer_1" data-name="Layer 1" xmlns="http://www.w3.org/2000/svg" viewBox="0 0 1024 370">
  <defs>
    <style>
      .cls-1 {
        fill: #e81e25;
      }

      .cls-2 {
        fill: #f89823;
      }
    </style>
  </defs>
  <path d="M171.05,301.45h-39.07v-74.87H62.15v74.87H23.33V118.95h38.82v74.11h69.83v-74.11h39.07v182.51Z"/>
  <path d="M287.72,231.26v-15.76h35.77v21.95c0,48.4-26.56,67.03-72.18,67.03-50.42,0-71.84-22.18-71.84-69.83v-115.7h39.07v110.41c0,28.49,7.31,42.6,34.28,42.6s34.9-10.96,34.9-40.7Z"/>
  <path d="M939.1,209.19l59.99,92.26h-44.87l-39.83-60.75-38.06,60.75h-41.85l58.99-92.01-43.25-69.04h43.36l24.34,40.3,42.41-61.76h40.33l-61.57,90.25Z"/>
  <g>
    <polygon class="cls-2" points="660.66 65.52 748.86 194 783 179.06 773.6 144.8 797.53 135.83 660.66 65.52"/>
    <polygon class="cls-1" points="810.08 131.34 839.58 98.69 862.74 102.59 917.58 92.82 810.08 131.34"/>
    <polygon points="781.45 148.54 795.33 189.68 824.89 196.41 841.66 133.96 859.83 119 781.45 148.54"/>
    <polygon points="762.51 194.61 761.44 244.61 821.37 201.66 789.73 194.61 785.37 184.61 762.51 194.61"/>
    <polygon points="749.83 199.92 724.72 301.73 752.77 277.75 755.49 197.65 749.83 199.92"/>
  </g>
  <polygon points="423.48 118.95 385.16 252.3 384.15 252.3 345.58 118.95 287.6 118.95 287.6 206.53 323.15 206.53 323.15 158.02 324.15 158.02 365.75 301.45 400.79 301.45 443.89 158.27 444.9 158.27 444.9 301.45 481.2 301.45 481.2 118.95 423.48 118.95"/>
  <path d="M540.65,206.67v-.51c18.4-5.04,34.54-18.15,34.54-42.6s-12.1-44.62-55.21-44.62h-30.31v30h16.95c17.39,0,30.5,1.26,30.5,20.92,0,21.17-18.15,24.45-36.3,24.45h-11.15v29.49h20.48c17.39,0,31.51,3.53,31.51,23.95s-14.12,23.7-35.29,23.7h-16.7v30h24.51c39.58,0,68.82-12.86,68.82-50.16,0-25.21-13.36-41.09-42.35-44.62Z"/>
  <g>
    <polygon points="629.96 201.63 629.96 150.2 629.96 118.95 591.39 118.95 591.39 301.45 629.96 301.45 629.96 292.72 629.96 232.13 629.96 201.63"/>
    <path d="M674.95,222.83c18.65-8.57,31.51-25.21,31.51-52.18s-15.12-51.43-60.5-51.43h-7.6v31.33c18.4.73,28.02,7.49,28.02,23.88,0,18.73-12.23,26.05-28.02,27.27v30.71h.04l36.05,69.32h41.85l-41.34-78.9Z"/>
  </g>
</svg>