<svg width="19" height="19" viewBox="0 0 19 19" fill="none" xmlns="http://www.w3.org/2000/svg">
<path fill-rule="evenodd" clip-rule="evenodd" d="M17.1459 13.2875L14.8359 10.9475L13.9859 10.0975L12.8059 10.4875L10.5159 11.2575L7.64594 8.37751L8.40594 6.0875L8.77594 4.9475L7.90594 4.0675L5.59594 1.7275L4.17594 0.317505L2.76594 1.7275L2.47594 2.0175C0.233245 4.27405 -0.404903 7.67089 0.865941 10.5875C1.61055 12.2158 2.64773 13.6937 3.92594 14.9475C5.18278 16.2067 6.66076 17.2236 8.28594 17.9475C11.2002 19.2389 14.609 18.5985 16.8559 16.3375L17.1459 16.0475L18.5659 14.6375L17.1459 13.2875ZM15.4459 14.9475C14.3727 16.0232 12.9155 16.6277 11.3959 16.6275C10.6064 16.6289 9.82573 16.4619 9.10594 16.1375C7.69484 15.5017 6.41593 14.6061 5.33594 13.4975C4.23312 12.4164 3.33827 11.1419 2.69594 9.7375C1.74445 7.57633 2.22141 5.05242 3.89594 3.3875L4.17594 3.1075L6.49594 5.4575L5.65594 7.9475C5.46135 8.53321 5.61206 9.17857 6.04594 9.61751L9.24594 12.8075C9.55119 13.1126 9.96438 13.285 10.3959 13.2875C10.5722 13.2862 10.7474 13.2592 10.9159 13.2075L13.4259 12.3675L15.7359 14.6775L15.4459 14.9475Z" fill="#EA1D25"/>
</svg>
